<svg xmlns="http://www.w3.org/2000/svg" width="16.267" height="16.267" viewBox="0 0 16.267 16.267">
  <g id="vuesax_outline_calendar" data-name="vuesax/outline/calendar" transform="translate(-492 -188)" opacity="0.52">
    <g id="calendar" transform="translate(492 188)">
      <path id="Vector" d="M.508,3.05A.512.512,0,0,1,0,2.542V.508A.512.512,0,0,1,.508,0a.512.512,0,0,1,.508.508V2.542A.512.512,0,0,1,.508,3.05Z" transform="translate(4.914 0.847)" fill="#1c1c1c"/>
      <path id="Vector-2" data-name="Vector" d="M.508,3.05A.512.512,0,0,1,0,2.542V.508A.512.512,0,0,1,.508,0a.512.512,0,0,1,.508.508V2.542A.512.512,0,0,1,.508,3.05Z" transform="translate(10.336 0.847)" fill="#1c1c1c"/>
      <path id="Vector-3" data-name="Vector" d="M.678,1.352A.675.675,0,0,1,.42,1.3.7.7,0,0,1,.2,1.155.7.7,0,0,1,0,.674.675.675,0,0,1,.054.416.783.783,0,0,1,.2.193.7.7,0,0,1,.42.05a.692.692,0,0,1,.739.142.713.713,0,0,1,.2.481A1.019,1.019,0,0,1,1.342.81.431.431,0,0,1,1.3.932a.513.513,0,0,1-.061.122,1.068,1.068,0,0,1-.081.1A.713.713,0,0,1,.678,1.352Z" transform="translate(5.083 8.476)" fill="#1c1c1c"/>
      <path id="Vector-4" data-name="Vector" d="M.678,1.355A.675.675,0,0,1,.42,1.3.7.7,0,0,1,.2,1.158.7.7,0,0,1,0,.677.675.675,0,0,1,.054.419.783.783,0,0,1,.2.2.7.7,0,0,1,.42.053.679.679,0,0,1,1.159.2a.713.713,0,0,1,.2.481,1.019,1.019,0,0,1-.014.136A.431.431,0,0,1,1.3.935a.513.513,0,0,1-.061.122,1.068,1.068,0,0,1-.081.1A.713.713,0,0,1,.678,1.355Z" transform="translate(7.456 8.473)" fill="#1c1c1c"/>
      <path id="Vector-5" data-name="Vector" d="M.678,1.355A.675.675,0,0,1,.42,1.3.7.7,0,0,1,.2,1.158l-.081-.1A.513.513,0,0,1,.054.935.431.431,0,0,1,.014.813,1.019,1.019,0,0,1,0,.677.713.713,0,0,1,.2.2.7.7,0,0,1,.42.053.677.677,0,0,1,1.159.2a.713.713,0,0,1,.2.481,1.019,1.019,0,0,1-.014.136A.431.431,0,0,1,1.3.935a.513.513,0,0,1-.061.122,1.068,1.068,0,0,1-.081.1A.713.713,0,0,1,.678,1.355Z" transform="translate(9.828 8.473)" fill="#1c1c1c"/>
      <path id="Vector-6" data-name="Vector" d="M.678,1.347A.675.675,0,0,1,.42,1.293.783.783,0,0,1,.2,1.151.713.713,0,0,1,0,.669.675.675,0,0,1,.054.412.633.633,0,0,1,.2.188a.71.71,0,0,1,.962,0,.713.713,0,0,1,.2.481.713.713,0,0,1-.2.481A.713.713,0,0,1,.678,1.347Z" transform="translate(5.083 10.853)" fill="#1c1c1c"/>
      <path id="Vector-7" data-name="Vector" d="M.678,1.347a.713.713,0,0,1-.481-.2A.713.713,0,0,1,0,.669.675.675,0,0,1,.054.412.633.633,0,0,1,.2.188a.71.71,0,0,1,.962,0A.633.633,0,0,1,1.3.412a.675.675,0,0,1,.054.258.713.713,0,0,1-.2.481A.713.713,0,0,1,.678,1.347Z" transform="translate(7.456 10.853)" fill="#1c1c1c"/>
      <path id="Vector-8" data-name="Vector" d="M.678,1.356A.713.713,0,0,1,.2,1.16.633.633,0,0,1,.054.936.675.675,0,0,1,0,.678.675.675,0,0,1,.054.421.633.633,0,0,1,.2.2.677.677,0,0,1,.807.014.409.409,0,0,1,.935.055a.513.513,0,0,1,.122.061,1.068,1.068,0,0,1,.1.081.713.713,0,0,1,.2.481.713.713,0,0,1-.2.481A.713.713,0,0,1,.678,1.356Z" transform="translate(9.828 10.844)" fill="#1c1c1c"/>
      <path id="Vector-9" data-name="Vector" d="M12.031,1.017H.508A.512.512,0,0,1,0,.508.512.512,0,0,1,.508,0H12.031a.512.512,0,0,1,.508.508A.512.512,0,0,1,12.031,1.017Z" transform="translate(1.864 5.653)" fill="#1c1c1c"/>
      <path id="Vector-10" data-name="Vector" d="M9.32,13.556H3.9A3.55,3.55,0,0,1,0,9.658V3.9A3.55,3.55,0,0,1,3.9,0H9.32a3.55,3.55,0,0,1,3.9,3.9V9.658A3.55,3.55,0,0,1,9.32,13.556ZM3.9,1.017c-1.938,0-2.881.942-2.881,2.881V9.658c0,1.938.942,2.881,2.881,2.881H9.32c1.938,0,2.881-.942,2.881-2.881V3.9c0-1.938-.942-2.881-2.881-2.881Z" transform="translate(1.525 1.864)" fill="#1c1c1c"/>
      <path id="Vector-11" data-name="Vector" d="M0,0H16.267V16.267H0Z" fill="none" opacity="0"/>
    </g>
  </g>
</svg>
