<svg xmlns="http://www.w3.org/2000/svg" width="6.734" height="6.736" viewBox="0 0 6.734 6.736">
  <g id="Group_42" data-name="Group 42" transform="translate(-296.423 -655.422)">
    <path id="Vector" d="M.7,6.736a.7.7,0,0,1-.5-.207.71.71,0,0,1,0-1L5.531.2a.705.705,0,1,1,1,1L1.2,6.529A.683.683,0,0,1,.7,6.736Z" transform="translate(296.422 655.422)" fill="#292d32"/>
    <path id="Vector-2" data-name="Vector" d="M6.03,6.736a.7.7,0,0,1-.5-.207L.2,1.2a.705.705,0,0,1,1-1L6.529,5.531a.71.71,0,0,1,0,1A.7.7,0,0,1,6.03,6.736Z" transform="translate(296.422 655.422)" fill="#292d32"/>
  </g>
</svg>
