<svg xmlns="http://www.w3.org/2000/svg" width="39.425" height="28.131" viewBox="0 0 39.425 28.131">
  <g id="file" transform="translate(-50.829 -50.361)">
    <path id="Path_1" data-name="Path 1" d="M78.352,60.232a2.075,2.075,0,0,1,0,2.934L63.633,77.885a2.075,2.075,0,0,1-2.934,0l-9.263-9.263a2.075,2.075,0,0,1,0-2.934L66.155,50.969a2.075,2.075,0,0,1,2.934,0Z" transform="translate(0 -0.001)" fill="#dbf996"/>
    <path id="Path_2" data-name="Path 2" d="M117.219,63.165a2.075,2.075,0,0,0,0-2.934l-6.811-6.811,2.452-2.452a2.075,2.075,0,0,1,2.934,0l9.263,9.263a2.075,2.075,0,0,1,0,2.934L110.337,77.884a2.075,2.075,0,0,1-2.934,0l-2.452-2.452Z" transform="translate(-35.409)" fill="#dbf996"/>
  </g>
</svg>
