<svg xmlns="http://www.w3.org/2000/svg" width="14.584" height="14.584" viewBox="0 0 14.584 14.584">
  <g id="vuesax_outline_more" data-name="vuesax/outline/more" transform="translate(139.584 -556) rotate(90)">
    <g id="more" transform="translate(556 125)">
      <path id="Vector" d="M1.671,3.342A1.671,1.671,0,1,1,3.342,1.671,1.67,1.67,0,0,1,1.671,3.342Zm0-2.431a.76.76,0,1,0,.76.76A.76.76,0,0,0,1.671.912Z" transform="translate(1.367 5.621)" fill="#fff"/>
      <path id="Vector-2" data-name="Vector" d="M1.671,3.342A1.671,1.671,0,1,1,3.342,1.671,1.67,1.67,0,0,1,1.671,3.342Zm0-2.431a.76.76,0,1,0,.76.76A.76.76,0,0,0,1.671.912Z" transform="translate(9.875 5.621)" fill="#fff"/>
      <path id="Vector-3" data-name="Vector" d="M1.671,3.342A1.671,1.671,0,1,1,3.342,1.671,1.67,1.67,0,0,1,1.671,3.342Zm0-2.431a.76.76,0,1,0,.76.76A.76.76,0,0,0,1.671.912Z" transform="translate(5.621 5.621)" fill="#fff"/>
      <path id="Vector-4" data-name="Vector" d="M0,0H14.584V14.584H0Z" fill="none" opacity="0"/>
    </g>
  </g>
</svg>
