<svg xmlns="http://www.w3.org/2000/svg" width="300.079" height="214.114" viewBox="0 0 300.079 214.114">
  <g id="file" transform="translate(-50.829 -50.361)">
    <path id="Path_1" data-name="Path 1" d="M260.316,125.488a15.79,15.79,0,0,1,0,22.33L148.284,259.849a15.79,15.79,0,0,1-22.329,0l-70.5-70.5a15.79,15.79,0,0,1,0-22.329L167.485,54.986a15.79,15.79,0,0,1,22.33,0Z" transform="translate(0 0.002)" fill="#2176ff"/>
    <path id="Path_2" data-name="Path 2" d="M198.324,147.819a15.79,15.79,0,0,0,0-22.329L146.481,73.646l18.664-18.661a15.79,15.79,0,0,1,22.329,0l70.5,70.5a15.79,15.79,0,0,1,0,22.329L145.944,259.848a15.79,15.79,0,0,1-22.332,0l-18.661-18.661Z" transform="translate(88.308 0)" fill="#2176ff"/>
  </g>
</svg>
